<?xml version="1.0" encoding="utf-8"?>
<!-- Generator: Adobe Illustrator 25.0.0, SVG Export Plug-In . SVG Version: 6.00 Build 0)  -->
<svg version="1.1" id="Capa_1" xmlns="http://www.w3.org/2000/svg" xmlns:xlink="http://www.w3.org/1999/xlink" x="0px" y="0px"
	 viewBox="0 0 1920 452.1" style="enable-background:new 0 0 1920 452.1;" xml:space="preserve">
<style type="text/css">
	.st0{enable-background:new    ;}
	.st1{fill:#FFFFFF;}
</style>
<g class="st0">
	<path class="st1" d="M46.5,316.8c-21.1-21.1-31.6-46.5-31.6-76.4c0-29.7,10.5-55.1,31.6-76.2c21.1-21.1,46.5-31.6,76.4-31.6
		c13,0,25.5,2.2,37.4,6.7c1.7,0.6,2.5,1.8,2.5,3.7c0,1.8-0.5,3-1.6,3.7c-0.7,0.5-1.4,0.7-2.2,0.7c-0.6,0-1.1-0.1-1.6-0.3
		c-11.1-4.2-22.6-6.3-34.5-6.3c-27.4,0-50.9,9.7-70.4,29.2C33,189.6,23.3,213,23.3,240.4c0,27.4,9.7,50.9,29.2,70.4
		c19.5,19.4,43,29.1,70.4,29.1c12.1,0,23.7-2,34.6-6.1c0.6-0.2,1.1-0.3,1.5-0.3c0.7,0,1.4,0.2,2.2,0.7c1.1,0.8,1.6,1.9,1.6,3.3
		c0,2.2-0.9,3.6-2.7,4.3c-11.9,4.4-24.4,6.6-37.3,6.6C93.1,348.4,67.6,337.9,46.5,316.8z"/>
	<path class="st1" d="M204.5,326.2c-14.8-14.7-22.2-32.5-22.2-53.4c0-20.9,7.4-38.7,22.2-53.4c14.7-14.8,32.5-22.2,53.4-22.2
		c20.9,0,38.7,7.4,53.4,22.2c14.8,14.7,22.2,32.5,22.2,53.4c0,20.9-7.4,38.7-22.2,53.4c-14.7,14.8-32.5,22.2-53.4,22.2
		C237,348.4,219.2,341,204.5,326.2z M210.5,225.8c-13.2,13.1-19.8,28.9-19.8,47.4c0,18.5,6.6,34.3,19.8,47.4
		c13.1,13.1,28.9,19.7,47.4,19.7c18.5,0,34.3-6.6,47.4-19.7c13.2-13.1,19.8-28.9,19.8-47.4c0-18.5-6.6-34.3-19.8-47.4
		c-13.1-13.1-28.9-19.7-47.4-19.7C239.4,206.1,223.6,212.7,210.5,225.8z"/>
	<path class="st1" d="M476.6,348.4c-2.6,0-3.9-1.3-3.9-4v-86.1c0-14.5-5.2-26.9-15.5-37.1c-10.2-10.2-22.6-15.4-37.1-15.4
		c-14.5,0-27,5.1-37.3,15.4c-10.3,10.2-15.5,22.6-15.5,37.1v86.1c0,2.7-1.3,4-3.9,4c-3,0-4.5-1.3-4.5-4v-86.1
		c0-16.9,6-31.3,17.9-43.3c12-11.9,26.5-17.9,43.3-17.9c16.8,0,31.2,6,43.1,17.9c11.9,11.9,17.9,26.4,17.9,43.3v86.1
		c0,2.7-1.3,4-3.9,4H476.6z"/>
	<path class="st1" d="M548.5,348.4c-9.5,0-17.7-3.4-24.5-10.1c-6.8-6.7-10.1-14.8-10.1-24.3V136.6c0-2.7,1.4-4,4.2-4
		c2.8,0,4.2,1.3,4.2,4v60.6H561c2.7,0,4,1.4,4,4.2c0,3-1.3,4.5-4,4.5h-38.8V314c0,7.2,2.6,13.3,7.8,18.3c5.1,5.1,11.2,7.6,18.5,7.6
		H561c2.7,0,4,1.4,4,4.2c0,2.9-1.3,4.3-4,4.3H548.5z"/>
	<path class="st1" d="M589.1,348.4c-2.6,0-3.9-1.3-3.9-4v-92.8c0.1-15.2,5.4-28.1,16-38.6c10.4-10.5,23.2-15.8,38.3-15.8h9.1
		c2.7,0,4,1.4,4,4.2c0,3-1.3,4.5-4,4.5h-9.1c-12.7,0-23.5,4.4-32.4,13.1c-8.9,8.9-13.4,19.7-13.6,32.7v92.8c0,2.7-1.3,4-4,4H589.1z"
		/>
	<path class="st1" d="M688.6,326.2c-14.8-14.7-22.2-32.5-22.2-53.4c0-20.9,7.4-38.7,22.2-53.4c14.7-14.8,32.5-22.2,53.4-22.2
		c20.9,0,38.7,7.4,53.4,22.2c14.8,14.7,22.2,32.5,22.2,53.4c0,20.9-7.4,38.7-22.2,53.4c-14.7,14.8-32.5,22.2-53.4,22.2
		C721.1,348.4,703.3,341,688.6,326.2z M694.6,225.8c-13.2,13.1-19.8,28.9-19.8,47.4c0,18.5,6.6,34.3,19.8,47.4
		c13.1,13.1,28.9,19.7,47.4,19.7c18.5,0,34.3-6.6,47.4-19.7c13.2-13.1,19.8-28.9,19.8-47.4c0-18.5-6.6-34.3-19.8-47.4
		c-13.1-13.1-28.9-19.7-47.4-19.7C723.5,206.1,707.7,212.7,694.6,225.8z"/>
	<path class="st1" d="M857.3,344.4c0,2.7-1.3,4-3.9,4c-3,0-4.5-1.3-4.5-4V136.6c0-2.7,1.4-4,4.2-4c2.8,0,4.2,1.3,4.2,4V344.4z"/>
</g>
<g class="st0">
	<path class="st1" d="M904.7,121.2c29.8-45.3,64.1-65.7,108.5-65.7c63.6,0,93.4,43.7,87.3,88.9c-4.1,26.9-20.4,56.3-47.3,80.8
		L981,285.6l35.1-6.9h65.3l-9.8,69.4h-186l-12.6-37.9l139.9-136.3c42.4-46.1-22-78.7-57.5-22.8L904.7,121.2z"/>
</g>
<g class="st0">
	<path class="st1" d="M1149.4,348.4c-8.1,0-15-2.9-20.7-8.7c-5.8-5.8-8.7-12.7-8.7-20.7V162c0-8.2,2.9-15.1,8.7-20.9
		c5.8-5.7,12.7-8.5,20.7-8.5h23.7c29.8,0,55.3,10.5,76.4,31.6c21.2,21.1,31.8,46.5,31.8,76.2c0,29.8-10.6,55.3-31.8,76.4
		c-21.1,21.1-46.5,31.6-76.4,31.6H1149.4z M1149.4,140.9c-5.8,0-10.7,2-14.8,6.1c-4.2,4.2-6.3,9.2-6.3,14.9V319
		c0,5.8,2.1,10.7,6.3,14.8c4.1,4.1,9,6.1,14.8,6.1h23.7c27.4,0,50.9-9.7,70.4-29.1c19.4-19.5,29.1-43,29.1-70.4
		c0-27.4-9.7-50.9-29.1-70.3c-19.5-19.5-43-29.2-70.4-29.2H1149.4z"/>
	<path class="st1" d="M1450.4,348.4c-2.6,0-3.9-1.3-3.9-4v-36.7c-4.8,8.7-10.5,15.9-17.3,21.8c-14.1,12.6-30.8,18.9-50,18.9
		c-20.9,0-38.7-7.4-53.4-22.2c-14.8-14.7-22.2-32.5-22.2-53.4c0-20.9,7.4-38.7,22.2-53.4c14.7-14.8,32.5-22.2,53.4-22.2
		s38.7,7.4,53.4,22.2c14.8,14.7,22.2,32.5,22.2,53.4v71.6c0,2.7-1.3,4-4,4H1450.4z M1331.8,225.4c-13.2,13.1-19.8,28.9-19.8,47.4
		c0,18.5,6.6,34.3,19.8,47.4c13.1,13.1,28.9,19.7,47.4,19.7s34.3-6.6,47.4-19.7c13.2-13.1,19.8-28.9,19.8-47.4
		c0-18.5-6.6-34.3-19.8-47.4c-13.1-13-28.9-19.5-47.4-19.5S1344.9,212.3,1331.8,225.4z"/>
	<path class="st1" d="M1602.4,348.4c-2.6,0-3.9-1.3-3.9-4v-86.1c0-14.5-5.2-26.9-15.5-37.1c-10.2-10.2-22.6-15.4-37.1-15.4
		c-14.5,0-27,5.1-37.3,15.4c-10.3,10.2-15.5,22.6-15.5,37.1v86.1c0,2.7-1.3,4-3.9,4c-3,0-4.5-1.3-4.5-4v-86.1
		c0-16.9,6-31.3,17.9-43.3c12-11.9,26.5-17.9,43.3-17.9c16.8,0,31.2,6,43.1,17.9c11.9,11.9,17.9,26.4,17.9,43.3v86.1
		c0,2.7-1.3,4-3.9,4H1602.4z"/>
	<path class="st1" d="M1658.9,326.2c-14.8-14.7-22.2-32.5-22.2-53.4c0-20.9,7.4-38.7,22.2-53.4c14.7-14.8,32.5-22.2,53.4-22.2
		c7.5,0,15.1,1.2,22.8,3.6c1.9,0.6,2.8,1.8,2.8,3.7v0.9c0,1.4-0.5,2.5-1.6,3.3c-0.8,0.6-1.5,0.9-2.1,0.9c-0.3,0-0.7-0.1-1.2-0.3
		c-6.7-2.1-13.6-3.1-20.7-3.1c-18.5,0-34.3,6.6-47.4,19.7c-13.2,13.1-19.8,28.9-19.8,47.4c0,18.5,6.6,34.3,19.8,47.4
		c13.1,13.1,28.9,19.7,47.4,19.7c7.2,0,14-1,20.4-3.1c0.6-0.2,1-0.3,1.3-0.3c0.7,0,1.4,0.3,2.2,0.9c1.1,0.8,1.6,1.8,1.6,3.1
		c0,2.1-0.9,3.4-2.7,3.9c-7.5,2.4-15.1,3.6-23,3.6C1691.5,348.4,1673.7,341,1658.9,326.2z"/>
	<path class="st1" d="M1782.6,326.2c-14.8-14.7-22.2-32.5-22.2-53.4c0-20.9,7.4-38.7,22.2-53.4c14.7-14.8,32.5-22.2,53.4-22.2
		c14.7,0,28.3,4,40.7,12.1c12.4,8,21.7,18.6,27.9,32.1c0.5,1.1,0.6,2.1,0.3,3c-0.4,1.2-1,2-1.9,2.4c-13.7,6.1-33.1,14.8-58.2,26.1
		c-25.5,11.5-44.8,20.2-57.9,26.1c-1.4,0.6-3.2,1.4-5.4,2.5c-2.3,1-4.1,1.8-5.5,2.4c1.8,4,4.1,7.6,7,10.9
		c13.5,17.1,31.2,25.7,53,25.7c14.2,0,27.1-4.2,38.8-12.5c11.6-8.3,19.8-19.1,24.6-32.5c0.6-1.9,2-2.8,4.2-2.8
		c1.4,0,2.4,0.5,3.1,1.6c0.9,1.2,1.1,2.5,0.6,3.9c-5.3,15-14.5,27.2-27.6,36.5c-13.1,9.2-27.7,13.9-43.7,13.9
		C1815.1,348.4,1797.3,341,1782.6,326.2z M1788.6,225.8c-13.2,13.1-19.8,28.9-19.8,47.4c0,3.3,0.2,6.5,0.6,9.7
		c0.6,4.5,1.7,8.9,3.4,13.3c13.5-6.2,34-15.4,61.3-27.7c26.9-12.1,47.4-21.3,61.3-27.6c-2.6-4.2-5.3-7.8-8.1-10.9
		c-13.5-15.9-30.6-23.9-51.3-23.9C1817.5,206.1,1801.7,212.7,1788.6,225.8z"/>
</g>
</svg>
